<svg width="433" height="42" viewBox="0 0 433 42" fill="none" xmlns="http://www.w3.org/2000/svg">
<path d="M52.7656 3.07812C52.2812 3.07812 51.6406 3.19531 50.8438 3.42969C50.0469 3.64844 49.3438 4.09375 48.7344 4.76562C47.9688 5.59375 47.4531 6.74219 47.1875 8.21094C46.9375 9.67969 46.8125 11.6953 46.8125 14.2578C46.8125 15.2266 46.8281 16.1016 46.8594 16.8828C46.8906 17.6641 46.9219 18.4688 46.9531 19.2969C46.9844 20.1094 47.0156 20.9766 47.0469 21.8984C47.0781 22.8203 47.0938 23.9062 47.0938 25.1562C47.0938 25.9219 47.0781 26.7266 47.0469 27.5703C47.0156 28.3984 46.9453 29.2188 46.8359 30.0312C46.7266 30.8438 46.5703 31.6328 46.3672 32.3984C46.1797 33.1484 45.9453 33.8047 45.6641 34.3672C45.1797 35.3359 44.5 36.2812 43.625 37.2031C42.7656 38.1094 41.6797 38.7344 40.3672 39.0781V39.5703H46.9062C47.7656 39.5703 48.4453 39.4062 48.9453 39.0781C49.4453 38.7344 49.8281 38.2969 50.0938 37.7656C50.375 37.2344 50.5547 36.6641 50.6328 36.0547C50.7109 35.4453 50.75 34.8516 50.75 34.2734V32.75H52.2734V34.2734C52.2734 35.2422 52.1953 36.1328 52.0391 36.9453C51.8828 37.7578 51.5938 38.4688 51.1719 39.0781C50.7656 39.6875 50.1953 40.1641 49.4609 40.5078C48.7422 40.8359 47.8281 41 46.7188 41H35.2344V39.5703C36.3906 39.5703 37.4922 39.4062 38.5391 39.0781C39.6016 38.7344 40.4531 38.2422 41.0938 37.6016C41.7656 36.9297 42.2812 36.1953 42.6406 35.3984C43.0156 34.5859 43.2891 33.7266 43.4609 32.8203C43.6484 31.8984 43.7578 30.9453 43.7891 29.9609C43.8203 28.9609 43.8359 27.9688 43.8359 26.9844C43.8359 26.1562 43.8203 25.3672 43.7891 24.6172C43.7578 23.8516 43.7344 23.0938 43.7188 22.3438C43.7031 21.5938 43.6797 20.8047 43.6484 19.9766C43.6172 19.1484 43.6016 18.2344 43.6016 17.2344C43.6016 13.7188 43.8047 11.0156 44.2109 9.125C44.5703 7.59375 45.1562 6.375 45.9688 5.46875C46.7812 4.54688 47.75 3.91406 48.875 3.57031V3.07812C47.6875 3.07812 46.5625 3.46094 45.5 4.22656C44.4531 4.99219 43.5625 5.96875 42.8281 7.15625C42.1875 8.1875 41.6172 9.38281 41.1172 10.7422C40.6172 12.1016 40.1406 13.6016 39.6875 15.2422C39.25 16.8672 38.8281 18.6016 38.4219 20.4453C38.0312 22.2734 37.6406 24.1797 37.25 26.1641C37.0938 27.0234 36.9062 27.9141 36.6875 28.8359C36.4844 29.7422 36.2734 30.6484 36.0547 31.5547C35.8359 32.4453 35.5938 33.3203 35.3281 34.1797C35.0781 35.0391 34.8125 35.8281 34.5312 36.5469C33.9844 37.9219 33.2578 39.0078 32.3516 39.8047C31.4609 40.6016 30.2969 41 28.8594 41H27.1719V39.5703H28.8125C30.4688 39.4609 31.2969 38.7891 31.2969 37.5547C31.2969 36.8047 31.1719 35.6328 30.9219 34.0391C30.6719 32.4453 30.3516 30.6641 29.9609 28.6953C29.5703 26.7266 29.1484 24.7188 28.6953 22.6719C28.2578 20.625 27.8438 18.7812 27.4531 17.1406C27.2969 16.5 27.0391 15.5391 26.6797 14.2578C26.3359 12.9766 25.9062 11.6172 25.3906 10.1797C25.0781 11.4922 24.8125 12.9141 24.5938 14.4453C24.3906 15.9609 24.2109 17.5 24.0547 19.0625C23.8984 20.625 23.7266 22.1797 23.5391 23.7266C23.3672 25.2578 23.1719 26.6797 22.9531 27.9922C22.5625 30.0703 22.0781 31.9766 21.5 33.7109C20.9375 35.4297 20.1562 36.8984 19.1562 38.1172C18.1719 39.3359 16.9297 40.2812 15.4297 40.9531C13.9453 41.625 12.1172 41.9609 9.94531 41.9609C8.47656 41.9609 7.14062 41.7109 5.9375 41.2109C4.73438 40.7109 3.71094 40.0234 2.86719 39.1484C2.02344 38.2734 1.36719 37.2188 0.898438 35.9844C0.429688 34.75 0.195312 33.3828 0.195312 31.8828C0.195312 30.2422 0.46875 28.8516 1.01562 27.7109C1.5625 26.5547 2.25 25.6172 3.07812 24.8984C3.90625 24.1797 4.80469 23.6641 5.77344 23.3516C6.75781 23.0234 7.70312 22.8594 8.60938 22.8594C9.71875 22.8594 10.7109 23.0312 11.5859 23.375C12.4766 23.7031 13.2188 24.1719 13.8125 24.7812C14.4062 25.3906 14.8594 26.0938 15.1719 26.8906C15.5 27.6875 15.6641 28.5312 15.6641 29.4219C15.6641 30.0625 15.5625 30.7266 15.3594 31.4141C15.1719 32.1016 14.8672 32.7266 14.4453 33.2891C14.0391 33.8516 13.5078 34.3203 12.8516 34.6953C12.1953 35.0547 11.4219 35.2344 10.5312 35.2344C8.70312 35.2344 7.42969 34.6562 6.71094 33.5C5.99219 32.3281 5.63281 30.875 5.63281 29.1406H7.15625C7.15625 29.75 7.20312 30.3359 7.29688 30.8984C7.39062 31.4609 7.5625 31.9609 7.8125 32.3984C8.07812 32.8203 8.42969 33.1641 8.86719 33.4297C9.30469 33.6797 9.85938 33.8047 10.5312 33.8047C11.4531 33.8047 12.2812 33.4609 13.0156 32.7734C13.75 32.0859 14.1172 30.9688 14.1172 29.4219C14.1172 27.8281 13.5938 26.5781 12.5469 25.6719C11.5156 24.75 10.2031 24.2891 8.60938 24.2891C7.73438 24.2891 6.89062 24.4297 6.07812 24.7109C5.26562 24.9766 4.53906 25.4141 3.89844 26.0234C3.25781 26.6328 2.73438 27.4219 2.32812 28.3906C1.9375 29.3438 1.74219 30.5078 1.74219 31.8828C1.74219 33.5078 2.01562 34.875 2.5625 35.9844C3.125 37.0938 3.82812 37.9844 4.67188 38.6562C5.53125 39.3281 6.4375 39.8125 7.39062 40.1094C8.35938 40.3906 9.24219 40.5312 10.0391 40.5312C11.9609 40.5312 13.5781 40.2188 14.8906 39.5938C16.2031 38.9688 17.2891 38.1016 18.1484 36.9922C19.0078 35.8828 19.6875 34.5547 20.1875 33.0078C20.6875 31.4609 21.1094 29.7422 21.4531 27.8516C21.75 26.2734 21.9922 24.5938 22.1797 22.8125C22.3672 21.0156 22.5625 19.2266 22.7656 17.4453C22.9844 15.6484 23.2188 13.9297 23.4688 12.2891C23.7344 10.6328 24.0703 9.16406 24.4766 7.88281L24.2422 7.25C23.5391 5.6875 22.6953 4.44531 21.7109 3.52344C20.7422 2.58594 19.4922 2.11719 17.9609 2.11719C16.6484 2.11719 15.6641 2.47656 15.0078 3.19531C14.3516 3.91406 14.0234 4.82031 14.0234 5.91406C14.0234 7.00781 14.2578 7.82813 14.7266 8.375C15.2109 8.90625 15.8438 9.17188 16.625 9.17188C17.2656 9.17188 17.7734 8.98438 18.1484 8.60938C18.5391 8.21875 18.7344 7.71875 18.7344 7.10938C18.7344 6.40625 18.5078 5.92969 18.0547 5.67969C17.6016 5.41406 17.1562 5.28125 16.7188 5.28125V3.85156C17.7344 3.85156 18.5781 4.13281 19.25 4.69531C19.9219 5.25781 20.2578 6.0625 20.2578 7.10938C20.2578 8.14062 19.9062 8.98438 19.2031 9.64062C18.5 10.2969 17.6406 10.625 16.625 10.625C15.2812 10.625 14.25 10.2109 13.5312 9.38281C12.8281 8.53906 12.4766 7.39844 12.4766 5.96094C12.4766 4.33594 13.0078 3.05469 14.0703 2.11719C15.1328 1.16406 16.4766 0.6875 18.1016 0.6875C19.8984 0.6875 21.4531 1.04687 22.7656 1.76562C24.0781 2.48438 25.2031 3.46875 26.1406 4.71875C27.0938 5.96875 27.8984 7.42969 28.5547 9.10156C29.2109 10.7578 29.7734 12.5078 30.2422 14.3516C30.6328 15.8359 31 17.2812 31.3438 18.6875C31.7031 20.0938 32.0391 21.5234 32.3516 22.9766C32.6797 24.4297 32.9844 25.9219 33.2656 27.4531C33.5625 28.9688 33.8359 30.5859 34.0859 32.3047H34.4609C34.6016 31.8047 34.7344 31.2578 34.8594 30.6641C34.9844 30.0703 35.1016 29.4609 35.2109 28.8359C35.3203 28.2109 35.4375 27.5938 35.5625 26.9844C35.7031 26.375 35.8203 25.8125 35.9141 25.2969C36.6797 21.4219 37.4531 17.9141 38.2344 14.7734C39.0156 11.6172 40.0312 9 41.2812 6.92188C42.5938 4.78125 44.1016 3.34375 45.8047 2.60938C47.2734 1.96875 49.0781 1.64844 51.2188 1.64844H52.7656V3.07812ZM70.3438 31.7422C70.3438 32.5703 70.3438 33.2812 70.3438 33.875C70.3438 34.4688 70.3594 34.9922 70.3906 35.4453C70.4219 35.8828 70.4453 36.2734 70.4609 36.6172C70.4766 36.9453 70.5156 37.2734 70.5781 37.6016C70.7031 38.4297 70.9609 39.125 71.3516 39.6875C71.7422 40.25 72.3047 40.5312 73.0391 40.5312C73.5859 40.5312 74.0156 40.375 74.3281 40.0625C74.6562 39.7344 74.9062 39.3281 75.0781 38.8438C75.25 38.3594 75.3594 37.8438 75.4062 37.2969C75.4531 36.75 75.4766 36.2422 75.4766 35.7734V33.7109H77.0234V35.7266C77.0234 36.5859 76.9531 37.3906 76.8125 38.1406C76.6875 38.8906 76.4531 39.5547 76.1094 40.1328C75.7812 40.7109 75.3281 41.1562 74.75 41.4688C74.1875 41.7969 73.4531 41.9609 72.5469 41.9609C71.2031 41.9609 70.1172 41.5703 69.2891 40.7891C68.4609 40.0078 67.9297 38.9766 67.6953 37.6953H67.2266C66.8672 38.9141 66.2734 39.9297 65.4453 40.7422C64.6172 41.5547 63.4688 41.9609 62 41.9609C60.875 41.9609 59.8359 41.7266 58.8828 41.2578C57.9453 40.8047 57.2031 40.125 56.6562 39.2188C56.125 38.3281 55.7422 37.2812 55.5078 36.0781C55.2891 34.875 55.1797 33.4297 55.1797 31.7422V25.4375H54.6875C54.5938 25.9844 54.3281 26.5078 53.8906 27.0078C53.4688 27.5078 52.9375 27.7578 52.2969 27.7578V26.3047C52.7812 26.1797 53.1953 25.9375 53.5391 25.5781C53.8984 25.2031 54.1953 24.7969 54.4297 24.3594C54.6641 23.9062 54.8438 23.4531 54.9688 23C55.1094 22.5469 55.1797 22.1484 55.1797 21.8047H58.2969V31.7422C58.2969 33.4922 58.3672 34.8828 58.5078 35.9141C58.6484 36.9297 58.9297 37.8125 59.3516 38.5625C59.7109 39.2031 60.1719 39.6953 60.7344 40.0391C61.3125 40.3672 61.9688 40.5312 62.7031 40.5312C63.5156 40.5312 64.2031 40.3047 64.7656 39.8516C65.3438 39.3984 65.8125 38.7734 66.1719 37.9766C66.5469 37.1797 66.8125 36.2578 66.9688 35.2109C67.1406 34.1484 67.2266 32.9922 67.2266 31.7422V25.4375H66.7344C66.6406 25.9844 66.3516 26.5078 65.8672 27.0078C65.3984 27.5078 64.8438 27.7578 64.2031 27.7578V26.3047C64.6875 26.1797 65.1094 25.9375 65.4688 25.5781C65.8438 25.2031 66.1641 24.7969 66.4297 24.3594C66.7109 23.9062 66.9141 23.4531 67.0391 23C67.1641 22.5469 67.2266 22.1484 67.2266 21.8047H70.3438V31.7422ZM86.3984 23.0469C86.3984 23.5938 86.2734 24.1016 86.0234 24.5703C85.7891 25.0234 85.5312 25.4141 85.25 25.7422C85.8594 26.4141 86.4766 27.0781 87.1016 27.7344C87.7266 28.3906 88.2812 29.0781 88.7656 29.7969C89.2656 30.5156 89.6641 31.2891 89.9609 32.1172C90.2734 32.9453 90.4297 33.8906 90.4297 34.9531C90.4297 36.1094 90.2344 37.125 89.8438 38C89.4688 38.875 88.9531 39.6094 88.2969 40.2031C87.6406 40.7969 86.875 41.2344 86 41.5156C85.1406 41.8125 84.25 41.9609 83.3281 41.9609C82.3906 41.9609 81.5625 41.8047 80.8438 41.4922C80.125 41.1953 79.5156 40.7969 79.0156 40.2969C78.5312 39.7812 78.1562 39.1797 77.8906 38.4922C77.6406 37.7891 77.5156 37.0547 77.5156 36.2891C77.5156 34.8516 77.9062 33.6953 78.6875 32.8203C79.4688 31.9297 80.5312 31.4844 81.875 31.4844C82.2969 31.4844 82.7109 31.5547 83.1172 31.6953C83.5391 31.8203 83.9141 32.0312 84.2422 32.3281C84.5859 32.6094 84.8672 32.9688 85.0859 33.4062C85.3203 33.8281 85.4375 34.3281 85.4375 34.9062C85.4375 36.125 85.0625 37 84.3125 37.5312C83.5625 38.0469 82.625 38.3047 81.5 38.3047V36.875C82.1094 36.875 82.6562 36.7422 83.1406 36.4766C83.6406 36.1953 83.8906 35.6719 83.8906 34.9062C83.8906 34.3594 83.7109 33.8984 83.3516 33.5234C83.0078 33.1328 82.4844 32.9375 81.7812 32.9375C80.8281 32.9375 80.1328 33.2734 79.6953 33.9453C79.2734 34.6172 79.0625 35.3984 79.0625 36.2891C79.0625 36.8047 79.1484 37.3125 79.3203 37.8125C79.4922 38.3125 79.7578 38.7656 80.1172 39.1719C80.4922 39.5625 80.9375 39.8906 81.4531 40.1562C81.9688 40.4062 82.5625 40.5312 83.2344 40.5312C84.7344 40.5312 85.7891 40.0625 86.3984 39.125C87.0078 38.1719 87.3125 36.9766 87.3125 35.5391C87.3125 34.6016 87.1875 33.7656 86.9375 33.0312C86.7031 32.2969 86.3906 31.6094 86 30.9688C85.625 30.3281 85.1953 29.7031 84.7109 29.0938C84.2266 28.4844 83.7656 27.8438 83.3281 27.1719C82.5625 27.5625 81.6484 27.7578 80.5859 27.7578V26.3047C81.4453 26.2734 82.1172 26.1641 82.6016 25.9766C82.3516 25.5234 82.1641 25.1016 82.0391 24.7109C81.9297 24.3047 81.875 23.9141 81.875 23.5391C81.875 22.6953 82.0938 22.0391 82.5312 21.5703C82.9688 21.0859 83.5547 20.8438 84.2891 20.8438C84.9922 20.8438 85.5156 21.0703 85.8594 21.5234C86.2188 21.9609 86.3984 22.4688 86.3984 23.0469ZM83.7969 23.0938C83.7969 23.5781 83.9766 24.0938 84.3359 24.6406C84.6797 24.1875 84.8516 23.6562 84.8516 23.0469C84.8516 22.9219 84.8203 22.7812 84.7578 22.625C84.6953 22.4531 84.5547 22.3672 84.3359 22.3672C84.1484 22.3672 84.0078 22.4453 83.9141 22.6016C83.8359 22.7422 83.7969 22.9062 83.7969 23.0938ZM92.3516 31.3906C92.3516 29.9219 92.5156 28.5391 92.8438 27.2422C93.1875 25.9453 93.6875 24.8281 94.3438 23.8906C95 22.9375 95.8125 22.1953 96.7812 21.6641C97.7656 21.1172 98.8984 20.8438 100.18 20.8438C102.102 20.8438 103.625 21.4219 104.75 22.5781C105.891 23.7188 106.461 25.1875 106.461 26.9844C106.461 28.2031 106.242 29.2891 105.805 30.2422C105.383 31.1797 104.773 31.9688 103.977 32.6094C103.18 33.25 102.234 33.7344 101.141 34.0625C100.047 34.375 98.8438 34.5312 97.5312 34.5312H95.6094C95.7188 35.2344 95.8672 35.9375 96.0547 36.6406C96.2422 37.3438 96.5078 37.9844 96.8516 38.5625C97.2109 39.125 97.6797 39.5938 98.2578 39.9688C98.8359 40.3438 99.5547 40.5312 100.414 40.5312C101.414 40.5312 102.227 40.3203 102.852 39.8984C103.477 39.4766 103.969 38.9375 104.328 38.2812C104.703 37.625 104.961 36.8906 105.102 36.0781C105.242 35.2656 105.312 34.4766 105.312 33.7109H106.859C106.859 34.7891 106.734 35.8281 106.484 36.8281C106.25 37.8125 105.867 38.6953 105.336 39.4766C104.805 40.2422 104.117 40.8438 103.273 41.2812C102.43 41.7344 101.398 41.9609 100.18 41.9609C97.6484 41.9609 95.7109 41.0938 94.3672 39.3594C93.0234 37.6094 92.3516 34.9531 92.3516 31.3906ZM95.4688 33.0781H97.25C99.0156 33.0781 100.469 32.5859 101.609 31.6016C102.766 30.6016 103.344 29.1406 103.344 27.2188C103.344 26.6406 103.297 26.0625 103.203 25.4844C103.109 24.8906 102.938 24.3516 102.688 23.8672C102.453 23.3828 102.117 23 101.68 22.7188C101.258 22.4219 100.695 22.2734 99.9922 22.2734C99.0234 22.2734 98.2422 22.5625 97.6484 23.1406C97.0703 23.7188 96.6172 24.4531 96.2891 25.3438C95.9766 26.2188 95.7578 27.2031 95.6328 28.2969C95.5234 29.375 95.4688 30.4062 95.4688 31.3906V33.0781ZM124.883 31.3906C124.883 34.75 124.211 37.3516 122.867 39.1953C121.523 41.0391 119.633 41.9609 117.195 41.9609C114.789 41.9609 112.906 41.0391 111.547 39.1953C110.188 37.3516 109.508 34.75 109.508 31.3906C109.508 28.0312 110.188 25.4375 111.547 23.6094C112.906 21.7656 114.789 20.8438 117.195 20.8438C118.602 20.8438 119.789 21.1484 120.758 21.7578C121.742 22.3672 122.539 23.1719 123.148 24.1719C123.758 25.1562 124.195 26.2812 124.461 27.5469C124.742 28.7969 124.883 30.0781 124.883 31.3906ZM121.742 31.3906C121.742 30.4688 121.695 29.4844 121.602 28.4375C121.508 27.375 121.305 26.3906 120.992 25.4844C120.695 24.5625 120.242 23.7969 119.633 23.1875C119.023 22.5781 118.227 22.2734 117.242 22.2734C116.508 22.2734 115.953 22.4844 115.578 22.9062C115.219 23.3281 115.039 23.8359 115.039 24.4297C115.039 25.0703 115.172 25.5469 115.438 25.8594C115.719 26.1562 116.047 26.3047 116.422 26.3047C116.969 26.3047 117.32 26.1094 117.477 25.7188C117.633 25.3125 117.711 24.8672 117.711 24.3828H119.258C119.258 25.3516 119.055 26.1562 118.648 26.7969C118.258 27.4375 117.547 27.7578 116.516 27.7578C115.781 27.7578 115.164 27.5312 114.664 27.0781C114.18 26.625 113.938 26.0156 113.938 25.25C113.938 25 113.984 24.6719 114.078 24.2656C114.172 23.8438 114.359 23.4375 114.641 23.0469H114.172C113.625 23.7812 113.227 24.9219 112.977 26.4688C112.742 28 112.625 29.6406 112.625 31.3906C112.625 32.5156 112.695 33.625 112.836 34.7188C112.992 35.7969 113.234 36.7734 113.562 37.6484C113.906 38.5078 114.375 39.2031 114.969 39.7344C115.562 40.2656 116.305 40.5312 117.195 40.5312C118.633 40.5312 119.75 39.7812 120.547 38.2812C121.344 36.7656 121.742 34.4688 121.742 31.3906ZM134.961 23.0469C134.961 23.5938 134.836 24.1016 134.586 24.5703C134.352 25.0234 134.094 25.4141 133.812 25.7422C134.422 26.4141 135.039 27.0781 135.664 27.7344C136.289 28.3906 136.844 29.0781 137.328 29.7969C137.828 30.5156 138.227 31.2891 138.523 32.1172C138.836 32.9453 138.992 33.8906 138.992 34.9531C138.992 36.1094 138.797 37.125 138.406 38C138.031 38.875 137.516 39.6094 136.859 40.2031C136.203 40.7969 135.438 41.2344 134.562 41.5156C133.703 41.8125 132.812 41.9609 131.891 41.9609C130.953 41.9609 130.125 41.8047 129.406 41.4922C128.688 41.1953 128.078 40.7969 127.578 40.2969C127.094 39.7812 126.719 39.1797 126.453 38.4922C126.203 37.7891 126.078 37.0547 126.078 36.2891C126.078 34.8516 126.469 33.6953 127.25 32.8203C128.031 31.9297 129.094 31.4844 130.438 31.4844C130.859 31.4844 131.273 31.5547 131.68 31.6953C132.102 31.8203 132.477 32.0312 132.805 32.3281C133.148 32.6094 133.43 32.9688 133.648 33.4062C133.883 33.8281 134 34.3281 134 34.9062C134 36.125 133.625 37 132.875 37.5312C132.125 38.0469 131.188 38.3047 130.062 38.3047V36.875C130.672 36.875 131.219 36.7422 131.703 36.4766C132.203 36.1953 132.453 35.6719 132.453 34.9062C132.453 34.3594 132.273 33.8984 131.914 33.5234C131.57 33.1328 131.047 32.9375 130.344 32.9375C129.391 32.9375 128.695 33.2734 128.258 33.9453C127.836 34.6172 127.625 35.3984 127.625 36.2891C127.625 36.8047 127.711 37.3125 127.883 37.8125C128.055 38.3125 128.32 38.7656 128.68 39.1719C129.055 39.5625 129.5 39.8906 130.016 40.1562C130.531 40.4062 131.125 40.5312 131.797 40.5312C133.297 40.5312 134.352 40.0625 134.961 39.125C135.57 38.1719 135.875 36.9766 135.875 35.5391C135.875 34.6016 135.75 33.7656 135.5 33.0312C135.266 32.2969 134.953 31.6094 134.562 30.9688C134.188 30.3281 133.758 29.7031 133.273 29.0938C132.789 28.4844 132.328 27.8438 131.891 27.1719C131.125 27.5625 130.211 27.7578 129.148 27.7578V26.3047C130.008 26.2734 130.68 26.1641 131.164 25.9766C130.914 25.5234 130.727 25.1016 130.602 24.7109C130.492 24.3047 130.438 23.9141 130.438 23.5391C130.438 22.6953 130.656 22.0391 131.094 21.5703C131.531 21.0859 132.117 20.8438 132.852 20.8438C133.555 20.8438 134.078 21.0703 134.422 21.5234C134.781 21.9609 134.961 22.4688 134.961 23.0469ZM132.359 23.0938C132.359 23.5781 132.539 24.0938 132.898 24.6406C133.242 24.1875 133.414 23.6562 133.414 23.0469C133.414 22.9219 133.383 22.7812 133.32 22.625C133.258 22.4531 133.117 22.3672 132.898 22.3672C132.711 22.3672 132.57 22.4453 132.477 22.6016C132.398 22.7422 132.359 22.9062 132.359 23.0938ZM168.477 31.4844C168.477 33.5156 168.516 35.1016 168.594 36.2422C168.672 37.3672 168.836 38.2656 169.086 38.9375C169.352 39.5156 169.664 39.9297 170.023 40.1797C170.398 40.4141 170.805 40.5312 171.242 40.5312C171.789 40.5312 172.219 40.3516 172.531 39.9922C172.859 39.6328 173.102 39.2031 173.258 38.7031C173.43 38.1875 173.531 37.6641 173.562 37.1328C173.594 36.6016 173.609 36.1484 173.609 35.7734V33.7109H175.133V35.7266C175.133 36.5859 175.07 37.3906 174.945 38.1406C174.82 38.8906 174.586 39.5547 174.242 40.1328C173.914 40.7109 173.461 41.1562 172.883 41.4688C172.305 41.7969 171.57 41.9609 170.68 41.9609C169.336 41.9609 168.234 41.5703 167.375 40.7891C166.531 40.0078 166.016 38.9766 165.828 37.6953H165.336C165.086 38.9141 164.492 39.9297 163.555 40.7422C162.633 41.5547 161.562 41.9609 160.344 41.9609C159.031 41.9609 157.914 41.6875 156.992 41.1406C156.07 40.5938 155.32 39.8516 154.742 38.9141C154.164 37.9609 153.742 36.8672 153.477 35.6328C153.227 34.3828 153.102 33.0547 153.102 31.6484C153.102 30.3672 153.219 29.0859 153.453 27.8047C153.703 26.5234 154.102 25.3672 154.648 24.3359C155.195 23.2891 155.93 22.4453 156.852 21.8047C157.773 21.1641 158.922 20.8438 160.297 20.8438C161.328 20.8438 162.242 21.0938 163.039 21.5938C163.836 22.0781 164.445 22.8203 164.867 23.8203H165.336V5.28125H164.867C164.773 5.82812 164.508 6.35156 164.07 6.85156C163.648 7.35156 163.117 7.60156 162.477 7.60156V6.14844C162.945 6.02344 163.352 5.78125 163.695 5.42188C164.055 5.04688 164.352 4.64063 164.586 4.20312C164.836 3.75 165.023 3.29687 165.148 2.84375C165.273 2.39063 165.336 1.99219 165.336 1.64844H168.477V31.4844ZM160.789 22.2734C157.742 22.2734 156.219 25.2969 156.219 31.3438C156.219 34.3594 156.586 36.6484 157.32 38.2109C158.07 39.7578 159.211 40.5312 160.742 40.5312C162.242 40.5312 163.383 39.7656 164.164 38.2344C164.945 36.6875 165.336 34.4219 165.336 31.4375C165.336 28.4375 164.938 26.1641 164.141 24.6172C163.344 23.0547 162.227 22.2734 160.789 22.2734ZM176.117 31.3906C176.117 29.9219 176.281 28.5391 176.609 27.2422C176.953 25.9453 177.453 24.8281 178.109 23.8906C178.766 22.9375 179.578 22.1953 180.547 21.6641C181.531 21.1172 182.664 20.8438 183.945 20.8438C185.867 20.8438 187.391 21.4219 188.516 22.5781C189.656 23.7188 190.227 25.1875 190.227 26.9844C190.227 28.2031 190.008 29.2891 189.57 30.2422C189.148 31.1797 188.539 31.9688 187.742 32.6094C186.945 33.25 186 33.7344 184.906 34.0625C183.812 34.375 182.609 34.5312 181.297 34.5312H179.375C179.484 35.2344 179.633 35.9375 179.82 36.6406C180.008 37.3438 180.273 37.9844 180.617 38.5625C180.977 39.125 181.445 39.5938 182.023 39.9688C182.602 40.3438 183.32 40.5312 184.18 40.5312C185.18 40.5312 185.992 40.3203 186.617 39.8984C187.242 39.4766 187.734 38.9375 188.094 38.2812C188.469 37.625 188.727 36.8906 188.867 36.0781C189.008 35.2656 189.078 34.4766 189.078 33.7109H190.625C190.625 34.7891 190.5 35.8281 190.25 36.8281C190.016 37.8125 189.633 38.6953 189.102 39.4766C188.57 40.2422 187.883 40.8438 187.039 41.2812C186.195 41.7344 185.164 41.9609 183.945 41.9609C181.414 41.9609 179.477 41.0938 178.133 39.3594C176.789 37.6094 176.117 34.9531 176.117 31.3906ZM179.234 33.0781H181.016C182.781 33.0781 184.234 32.5859 185.375 31.6016C186.531 30.6016 187.109 29.1406 187.109 27.2188C187.109 26.6406 187.062 26.0625 186.969 25.4844C186.875 24.8906 186.703 24.3516 186.453 23.8672C186.219 23.3828 185.883 23 185.445 22.7188C185.023 22.4219 184.461 22.2734 183.758 22.2734C182.789 22.2734 182.008 22.5625 181.414 23.1406C180.836 23.7188 180.383 24.4531 180.055 25.3438C179.742 26.2188 179.523 27.2031 179.398 28.2969C179.289 29.375 179.234 30.4062 179.234 31.3906V33.0781ZM212.68 20.8438C215.117 20.8438 217.008 21.7656 218.352 23.6094C219.695 25.4375 220.367 28.4375 220.367 32.6094C220.367 33.625 220.383 34.6094 220.414 35.5625C220.445 36.5 220.539 37.3359 220.695 38.0703C220.852 38.8047 221.117 39.3984 221.492 39.8516C221.883 40.3047 222.414 40.5312 223.086 40.5312C223.633 40.5312 224.062 40.3672 224.375 40.0391C224.703 39.6953 224.945 39.2812 225.102 38.7969C225.273 38.3125 225.383 37.7969 225.43 37.25C225.477 36.7031 225.5 36.2109 225.5 35.7734V33.7109H227.023V35.7266C227.023 36.6172 226.961 37.4453 226.836 38.2109C226.711 38.9766 226.477 39.6328 226.133 40.1797C225.805 40.7266 225.352 41.1562 224.773 41.4688C224.195 41.7969 223.461 41.9609 222.57 41.9609C221.227 41.9609 220.141 41.5859 219.312 40.8359C218.5 40.0859 217.969 39.0391 217.719 37.6953H217.227C216.945 38.8047 216.375 39.7969 215.516 40.6719C214.672 41.5312 213.531 41.9609 212.094 41.9609C210.812 41.9609 209.727 41.6797 208.836 41.1172C207.945 40.5547 207.211 39.7969 206.633 38.8438C206.055 37.875 205.633 36.7656 205.367 35.5156C205.117 34.25 204.992 32.8906 204.992 31.4375C204.992 28.0469 205.672 25.4375 207.031 23.6094C208.391 21.7656 210.273 20.8438 212.68 20.8438ZM212.68 22.2734C209.633 22.2734 208.109 25.2969 208.109 31.3438C208.109 34.3594 208.484 36.6484 209.234 38.2109C210 39.7578 211.148 40.5312 212.68 40.5312C214.18 40.5312 215.312 39.7656 216.078 38.2344C216.844 36.6875 217.227 34.4219 217.227 31.4375C217.227 28.4375 216.844 26.1641 216.078 24.6172C215.312 23.0547 214.18 22.2734 212.68 22.2734ZM232.062 23.8203H232.531C233.172 22.8828 233.906 22.1562 234.734 21.6406C235.578 21.1094 236.508 20.8438 237.523 20.8438C238.586 20.8438 239.508 21.1406 240.289 21.7344C241.07 22.3281 241.461 23.2656 241.461 24.5469C241.461 25.4688 241.195 26.2344 240.664 26.8438C240.148 27.4531 239.422 27.7578 238.484 27.7578C237.531 27.7578 236.812 27.4609 236.328 26.8672C235.859 26.2734 235.625 25.4453 235.625 24.3828H237.148C237.148 24.8672 237.242 25.3125 237.43 25.7188C237.633 26.1094 238 26.3047 238.531 26.3047C238.922 26.3047 239.25 26.1719 239.516 25.9062C239.797 25.625 239.938 25.1875 239.938 24.5938C239.938 23.8125 239.68 23.2344 239.164 22.8594C238.648 22.4688 237.992 22.2734 237.195 22.2734C236.148 22.2734 235.266 22.5625 234.547 23.1406C233.844 23.7188 233.289 24.4688 232.883 25.3906C232.695 25.8438 232.539 26.3828 232.414 27.0078C232.305 27.6328 232.227 28.25 232.18 28.8594C232.133 29.4688 232.102 30.0312 232.086 30.5469C232.07 31.0469 232.062 31.4453 232.062 31.7422C232.062 32.6641 232.062 33.4688 232.062 34.1562C232.062 34.8438 232.078 35.5234 232.109 36.1953C232.141 36.8672 232.18 37.5781 232.227 38.3281C232.273 39.0781 232.328 39.9688 232.391 41H229.273C229.148 39.5 229.062 38.0156 229.016 36.5469C228.969 35.0625 228.945 33.4766 228.945 31.7891V25.4375H228.453C228.359 25.9844 228.094 26.5078 227.656 27.0078C227.234 27.5078 226.703 27.7578 226.062 27.7578V26.3047C226.547 26.1797 226.961 25.9375 227.305 25.5781C227.664 25.2031 227.961 24.7969 228.195 24.3594C228.43 23.9062 228.609 23.4531 228.734 23C228.875 22.5469 228.945 22.1484 228.945 21.8047H232.062V23.8203ZM244.836 23.2344H241.953V21.8047H244.836V14.7969H247.953V21.8047H252.523V23.2344H247.953V31.7422C247.953 32.8203 247.969 33.8438 248 34.8125C248.031 35.7656 248.109 36.6406 248.234 37.4375C248.406 38.375 248.672 39.125 249.031 39.6875C249.406 40.25 249.945 40.5312 250.648 40.5312C251.195 40.5312 251.625 40.3828 251.938 40.0859C252.25 39.7734 252.492 39.375 252.664 38.8906C252.852 38.4062 252.969 37.8828 253.016 37.3203C253.062 36.7578 253.086 36.2422 253.086 35.7734V33.7109H254.633V35.7266C254.633 36.6172 254.555 37.4453 254.398 38.2109C254.258 38.9766 254.008 39.6328 253.648 40.1797C253.305 40.7266 252.852 41.1562 252.289 41.4688C251.742 41.7969 251.047 41.9609 250.203 41.9609C249.281 41.9609 248.453 41.7734 247.719 41.3984C246.984 41.0391 246.391 40.4453 245.938 39.6172C245.484 38.8047 245.188 37.8203 245.047 36.6641C244.906 35.4922 244.836 33.8516 244.836 31.7422V23.2344ZM255.852 31.3906C255.852 29.9219 256.016 28.5391 256.344 27.2422C256.688 25.9453 257.188 24.8281 257.844 23.8906C258.5 22.9375 259.312 22.1953 260.281 21.6641C261.266 21.1172 262.398 20.8438 263.68 20.8438C265.602 20.8438 267.125 21.4219 268.25 22.5781C269.391 23.7188 269.961 25.1875 269.961 26.9844C269.961 28.2031 269.742 29.2891 269.305 30.2422C268.883 31.1797 268.273 31.9688 267.477 32.6094C266.68 33.25 265.734 33.7344 264.641 34.0625C263.547 34.375 262.344 34.5312 261.031 34.5312H259.109C259.219 35.2344 259.367 35.9375 259.555 36.6406C259.742 37.3438 260.008 37.9844 260.352 38.5625C260.711 39.125 261.18 39.5938 261.758 39.9688C262.336 40.3438 263.055 40.5312 263.914 40.5312C264.914 40.5312 265.727 40.3203 266.352 39.8984C266.977 39.4766 267.469 38.9375 267.828 38.2812C268.203 37.625 268.461 36.8906 268.602 36.0781C268.742 35.2656 268.812 34.4766 268.812 33.7109H270.359C270.359 34.7891 270.234 35.8281 269.984 36.8281C269.75 37.8125 269.367 38.6953 268.836 39.4766C268.305 40.2422 267.617 40.8438 266.773 41.2812C265.93 41.7344 264.898 41.9609 263.68 41.9609C261.148 41.9609 259.211 41.0938 257.867 39.3594C256.523 37.6094 255.852 34.9531 255.852 31.3906ZM258.969 33.0781H260.75C262.516 33.0781 263.969 32.5859 265.109 31.6016C266.266 30.6016 266.844 29.1406 266.844 27.2188C266.844 26.6406 266.797 26.0625 266.703 25.4844C266.609 24.8906 266.438 24.3516 266.188 23.8672C265.953 23.3828 265.617 23 265.18 22.7188C264.758 22.4219 264.195 22.2734 263.492 22.2734C262.523 22.2734 261.742 22.5625 261.148 23.1406C260.57 23.7188 260.117 24.4531 259.789 25.3438C259.477 26.2188 259.258 27.2031 259.133 28.2969C259.023 29.375 258.969 30.4062 258.969 31.3906V33.0781ZM304.695 22.2734C303.992 22.2734 303.383 22.4609 302.867 22.8359C302.367 23.1953 301.938 23.6797 301.578 24.2891C301.328 24.7422 301.125 25.2891 300.969 25.9297C300.828 26.5703 300.727 27.2266 300.664 27.8984C300.602 28.5703 300.562 29.2266 300.547 29.8672C300.531 30.5078 300.523 31.0703 300.523 31.5547C300.523 32.5078 300.523 33.3516 300.523 34.0859C300.523 34.8203 300.539 35.5312 300.57 36.2188C300.602 36.9062 300.633 37.6328 300.664 38.3984C300.695 39.1484 300.758 40.0156 300.852 41H297.734C297.672 40.1719 297.617 39.2812 297.57 38.3281C297.523 37.3594 297.484 36.4375 297.453 35.5625C297.422 34.6719 297.406 33.8906 297.406 33.2188C297.406 32.5469 297.406 32.0703 297.406 31.7891V27.125C297.406 26.4531 297.367 25.8281 297.289 25.25C297.211 24.6719 297.047 24.1641 296.797 23.7266C296.562 23.2734 296.219 22.9219 295.766 22.6719C295.328 22.4062 294.758 22.2734 294.055 22.2734C293.117 22.2734 292.344 22.5547 291.734 23.1172C291.125 23.6797 290.648 24.4375 290.305 25.3906C290.102 25.875 289.953 26.4531 289.859 27.125C289.766 27.7969 289.695 28.4453 289.648 29.0703C289.602 29.6953 289.57 30.2578 289.555 30.7578C289.539 31.2422 289.531 31.5703 289.531 31.7422C289.531 32.6641 289.531 33.4688 289.531 34.1562C289.531 34.8438 289.547 35.5234 289.578 36.1953C289.609 36.8672 289.648 37.5781 289.695 38.3281C289.742 39.0781 289.797 39.9688 289.859 41H286.742C286.586 39.5 286.492 37.9766 286.461 36.4297C286.43 34.8672 286.414 33.3047 286.414 31.7422V25.4375H285.922C285.828 25.9844 285.562 26.5078 285.125 27.0078C284.703 27.5078 284.172 27.7578 283.531 27.7578V26.3047C284.016 26.1797 284.43 25.9375 284.773 25.5781C285.133 25.2031 285.43 24.7969 285.664 24.3594C285.898 23.9062 286.078 23.4531 286.203 23C286.344 22.5469 286.414 22.1484 286.414 21.8047H289.531V23.8203H290C290.516 22.9141 291.219 22.1953 292.109 21.6641C293.016 21.1172 294 20.8438 295.062 20.8438C296.359 20.8438 297.445 21.1406 298.32 21.7344C299.211 22.3281 299.867 23.0234 300.289 23.8203H300.758C301.18 23.0547 301.828 22.3672 302.703 21.7578C303.578 21.1484 304.578 20.8438 305.703 20.8438C306.734 20.8438 307.617 21.0078 308.352 21.3359C309.086 21.6484 309.68 22.0938 310.133 22.6719C310.602 23.25 310.945 23.9375 311.164 24.7344C311.398 25.5312 311.516 26.4062 311.516 27.3594V31.7422C311.516 32.8203 311.531 33.8516 311.562 34.8359C311.594 35.8047 311.672 36.6875 311.797 37.4844C311.969 38.4531 312.25 39.2031 312.641 39.7344C313.047 40.2656 313.57 40.5312 314.211 40.5312C314.742 40.5312 315.164 40.3828 315.477 40.0859C315.805 39.7734 316.055 39.375 316.227 38.8906C316.414 38.4062 316.531 37.8828 316.578 37.3203C316.625 36.7578 316.648 36.2422 316.648 35.7734V33.7109H318.195V35.6797C318.195 36.5703 318.117 37.3984 317.961 38.1641C317.82 38.9297 317.578 39.5938 317.234 40.1562C316.906 40.7188 316.461 41.1562 315.898 41.4688C315.352 41.7969 314.641 41.9609 313.766 41.9609C312.875 41.9609 312.055 41.7734 311.305 41.3984C310.555 41.0391 309.953 40.4453 309.5 39.6172C309.047 38.8047 308.75 37.8203 308.609 36.6641C308.469 35.4922 308.398 33.8516 308.398 31.7422V27.3594C308.398 26.6875 308.344 26.0391 308.234 25.4141C308.125 24.7891 307.93 24.25 307.648 23.7969C307.383 23.3281 307.008 22.9609 306.523 22.6953C306.039 22.4141 305.43 22.2734 304.695 22.2734ZM334.555 31.3906C334.555 34.75 333.883 37.3516 332.539 39.1953C331.195 41.0391 329.305 41.9609 326.867 41.9609C324.461 41.9609 322.578 41.0391 321.219 39.1953C319.859 37.3516 319.18 34.75 319.18 31.3906C319.18 28.0312 319.859 25.4375 321.219 23.6094C322.578 21.7656 324.461 20.8438 326.867 20.8438C328.273 20.8438 329.461 21.1484 330.43 21.7578C331.414 22.3672 332.211 23.1719 332.82 24.1719C333.43 25.1562 333.867 26.2812 334.133 27.5469C334.414 28.7969 334.555 30.0781 334.555 31.3906ZM331.414 31.3906C331.414 30.4688 331.367 29.4844 331.273 28.4375C331.18 27.375 330.977 26.3906 330.664 25.4844C330.367 24.5625 329.914 23.7969 329.305 23.1875C328.695 22.5781 327.898 22.2734 326.914 22.2734C326.18 22.2734 325.625 22.4844 325.25 22.9062C324.891 23.3281 324.711 23.8359 324.711 24.4297C324.711 25.0703 324.844 25.5469 325.109 25.8594C325.391 26.1562 325.719 26.3047 326.094 26.3047C326.641 26.3047 326.992 26.1094 327.148 25.7188C327.305 25.3125 327.383 24.8672 327.383 24.3828H328.93C328.93 25.3516 328.727 26.1562 328.32 26.7969C327.93 27.4375 327.219 27.7578 326.188 27.7578C325.453 27.7578 324.836 27.5312 324.336 27.0781C323.852 26.625 323.609 26.0156 323.609 25.25C323.609 25 323.656 24.6719 323.75 24.2656C323.844 23.8438 324.031 23.4375 324.312 23.0469H323.844C323.297 23.7812 322.898 24.9219 322.648 26.4688C322.414 28 322.297 29.6406 322.297 31.3906C322.297 32.5156 322.367 33.625 322.508 34.7188C322.664 35.7969 322.906 36.7734 323.234 37.6484C323.578 38.5078 324.047 39.2031 324.641 39.7344C325.234 40.2656 325.977 40.5312 326.867 40.5312C328.305 40.5312 329.422 39.7812 330.219 38.2812C331.016 36.7656 331.414 34.4688 331.414 31.3906ZM352.32 31.4844C352.32 33.5156 352.359 35.1016 352.438 36.2422C352.516 37.3672 352.68 38.2656 352.93 38.9375C353.195 39.5156 353.508 39.9297 353.867 40.1797C354.242 40.4141 354.648 40.5312 355.086 40.5312C355.633 40.5312 356.062 40.3516 356.375 39.9922C356.703 39.6328 356.945 39.2031 357.102 38.7031C357.273 38.1875 357.375 37.6641 357.406 37.1328C357.438 36.6016 357.453 36.1484 357.453 35.7734V33.7109H358.977V35.7266C358.977 36.5859 358.914 37.3906 358.789 38.1406C358.664 38.8906 358.43 39.5547 358.086 40.1328C357.758 40.7109 357.305 41.1562 356.727 41.4688C356.148 41.7969 355.414 41.9609 354.523 41.9609C353.18 41.9609 352.078 41.5703 351.219 40.7891C350.375 40.0078 349.859 38.9766 349.672 37.6953H349.18C348.93 38.9141 348.336 39.9297 347.398 40.7422C346.477 41.5547 345.406 41.9609 344.188 41.9609C342.875 41.9609 341.758 41.6875 340.836 41.1406C339.914 40.5938 339.164 39.8516 338.586 38.9141C338.008 37.9609 337.586 36.8672 337.32 35.6328C337.07 34.3828 336.945 33.0547 336.945 31.6484C336.945 30.3672 337.062 29.0859 337.297 27.8047C337.547 26.5234 337.945 25.3672 338.492 24.3359C339.039 23.2891 339.773 22.4453 340.695 21.8047C341.617 21.1641 342.766 20.8438 344.141 20.8438C345.172 20.8438 346.086 21.0938 346.883 21.5938C347.68 22.0781 348.289 22.8203 348.711 23.8203H349.18V5.28125H348.711C348.617 5.82812 348.352 6.35156 347.914 6.85156C347.492 7.35156 346.961 7.60156 346.32 7.60156V6.14844C346.789 6.02344 347.195 5.78125 347.539 5.42188C347.898 5.04688 348.195 4.64063 348.43 4.20312C348.68 3.75 348.867 3.29687 348.992 2.84375C349.117 2.39063 349.18 1.99219 349.18 1.64844H352.32V31.4844ZM344.633 22.2734C341.586 22.2734 340.062 25.2969 340.062 31.3438C340.062 34.3594 340.43 36.6484 341.164 38.2109C341.914 39.7578 343.055 40.5312 344.586 40.5312C346.086 40.5312 347.227 39.7656 348.008 38.2344C348.789 36.6875 349.18 34.4219 349.18 31.4375C349.18 28.4375 348.781 26.1641 347.984 24.6172C347.188 23.0547 346.07 22.2734 344.633 22.2734ZM359.961 31.3906C359.961 29.9219 360.125 28.5391 360.453 27.2422C360.797 25.9453 361.297 24.8281 361.953 23.8906C362.609 22.9375 363.422 22.1953 364.391 21.6641C365.375 21.1172 366.508 20.8438 367.789 20.8438C369.711 20.8438 371.234 21.4219 372.359 22.5781C373.5 23.7188 374.07 25.1875 374.07 26.9844C374.07 28.2031 373.852 29.2891 373.414 30.2422C372.992 31.1797 372.383 31.9688 371.586 32.6094C370.789 33.25 369.844 33.7344 368.75 34.0625C367.656 34.375 366.453 34.5312 365.141 34.5312H363.219C363.328 35.2344 363.477 35.9375 363.664 36.6406C363.852 37.3438 364.117 37.9844 364.461 38.5625C364.82 39.125 365.289 39.5938 365.867 39.9688C366.445 40.3438 367.164 40.5312 368.023 40.5312C369.023 40.5312 369.836 40.3203 370.461 39.8984C371.086 39.4766 371.578 38.9375 371.938 38.2812C372.312 37.625 372.57 36.8906 372.711 36.0781C372.852 35.2656 372.922 34.4766 372.922 33.7109H374.469C374.469 34.7891 374.344 35.8281 374.094 36.8281C373.859 37.8125 373.477 38.6953 372.945 39.4766C372.414 40.2422 371.727 40.8438 370.883 41.2812C370.039 41.7344 369.008 41.9609 367.789 41.9609C365.258 41.9609 363.32 41.0938 361.977 39.3594C360.633 37.6094 359.961 34.9531 359.961 31.3906ZM363.078 33.0781H364.859C366.625 33.0781 368.078 32.5859 369.219 31.6016C370.375 30.6016 370.953 29.1406 370.953 27.2188C370.953 26.6406 370.906 26.0625 370.812 25.4844C370.719 24.8906 370.547 24.3516 370.297 23.8672C370.062 23.3828 369.727 23 369.289 22.7188C368.867 22.4219 368.305 22.2734 367.602 22.2734C366.633 22.2734 365.852 22.5625 365.258 23.1406C364.68 23.7188 364.227 24.4531 363.898 25.3438C363.586 26.2188 363.367 27.2031 363.242 28.2969C363.133 29.375 363.078 30.4062 363.078 31.3906V33.0781ZM381.922 23.8203H382.391C383.031 22.8828 383.766 22.1562 384.594 21.6406C385.438 21.1094 386.367 20.8438 387.383 20.8438C388.445 20.8438 389.367 21.1406 390.148 21.7344C390.93 22.3281 391.32 23.2656 391.32 24.5469C391.32 25.4688 391.055 26.2344 390.523 26.8438C390.008 27.4531 389.281 27.7578 388.344 27.7578C387.391 27.7578 386.672 27.4609 386.188 26.8672C385.719 26.2734 385.484 25.4453 385.484 24.3828H387.008C387.008 24.8672 387.102 25.3125 387.289 25.7188C387.492 26.1094 387.859 26.3047 388.391 26.3047C388.781 26.3047 389.109 26.1719 389.375 25.9062C389.656 25.625 389.797 25.1875 389.797 24.5938C389.797 23.8125 389.539 23.2344 389.023 22.8594C388.508 22.4688 387.852 22.2734 387.055 22.2734C386.008 22.2734 385.125 22.5625 384.406 23.1406C383.703 23.7188 383.148 24.4688 382.742 25.3906C382.555 25.8438 382.398 26.3828 382.273 27.0078C382.164 27.6328 382.086 28.25 382.039 28.8594C381.992 29.4688 381.961 30.0312 381.945 30.5469C381.93 31.0469 381.922 31.4453 381.922 31.7422C381.922 32.6641 381.922 33.4688 381.922 34.1562C381.922 34.8438 381.938 35.5234 381.969 36.1953C382 36.8672 382.039 37.5781 382.086 38.3281C382.133 39.0781 382.188 39.9688 382.25 41H379.133C379.008 39.5 378.922 38.0156 378.875 36.5469C378.828 35.0625 378.805 33.4766 378.805 31.7891V25.4375H378.312C378.219 25.9844 377.953 26.5078 377.516 27.0078C377.094 27.5078 376.562 27.7578 375.922 27.7578V26.3047C376.406 26.1797 376.82 25.9375 377.164 25.5781C377.523 25.2031 377.82 24.7969 378.055 24.3594C378.289 23.9062 378.469 23.4531 378.594 23C378.734 22.5469 378.805 22.1484 378.805 21.8047H381.922V23.8203ZM398.281 23.8203C398.891 22.8828 399.617 22.1562 400.461 21.6406C401.32 21.1094 402.281 20.8438 403.344 20.8438C405.359 20.8438 406.82 21.4297 407.727 22.6016C408.633 23.7578 409.086 25.3438 409.086 27.3594V31.7422C409.086 32.8203 409.102 33.8516 409.133 34.8359C409.164 35.8047 409.25 36.6875 409.391 37.4844C409.547 38.4531 409.82 39.2031 410.211 39.7344C410.617 40.2656 411.141 40.5312 411.781 40.5312C412.328 40.5312 412.758 40.3828 413.07 40.0859C413.398 39.7734 413.648 39.375 413.82 38.8906C413.992 38.4062 414.102 37.8828 414.148 37.3203C414.195 36.7578 414.219 36.2422 414.219 35.7734V33.7109H415.766V35.6797C415.766 36.5703 415.695 37.3984 415.555 38.1641C415.414 38.9297 415.172 39.5938 414.828 40.1562C414.5 40.7188 414.055 41.1562 413.492 41.4688C412.93 41.7969 412.219 41.9609 411.359 41.9609C410.453 41.9609 409.625 41.7734 408.875 41.3984C408.125 41.0391 407.523 40.4453 407.07 39.6172C406.633 38.8047 406.336 37.8203 406.18 36.6641C406.039 35.4922 405.969 33.8516 405.969 31.7422V27.3594C405.969 26.6875 405.914 26.0391 405.805 25.4141C405.695 24.7891 405.5 24.25 405.219 23.7969C404.953 23.3281 404.586 22.9609 404.117 22.6953C403.664 22.4141 403.07 22.2734 402.336 22.2734C401.523 22.2734 400.828 22.5234 400.25 23.0234C399.688 23.5234 399.227 24.1406 398.867 24.875C398.617 25.4219 398.422 26 398.281 26.6094C398.156 27.2188 398.055 27.8438 397.977 28.4844C397.898 29.1094 397.852 29.7266 397.836 30.3359C397.82 30.9453 397.812 31.4922 397.812 31.9766C397.812 32.8984 397.812 33.6953 397.812 34.3672C397.812 35.0391 397.828 35.7031 397.859 36.3594C397.891 37.0156 397.93 37.7109 397.977 38.4453C398.023 39.1641 398.078 40.0156 398.141 41H395.023C394.867 38.9531 394.773 37.0703 394.742 35.3516C394.711 33.6172 394.695 32.0938 394.695 30.7812V25.4375H394.203C394.109 25.9844 393.844 26.5078 393.406 27.0078C392.984 27.5078 392.453 27.7578 391.812 27.7578V26.3047C392.297 26.1797 392.711 25.9375 393.055 25.5781C393.414 25.2031 393.711 24.7969 393.945 24.3594C394.18 23.9062 394.359 23.4531 394.484 23C394.625 22.5469 394.695 22.1484 394.695 21.8047H397.812V23.8203H398.281ZM432.102 31.3906C432.102 34.75 431.43 37.3516 430.086 39.1953C428.742 41.0391 426.852 41.9609 424.414 41.9609C422.008 41.9609 420.125 41.0391 418.766 39.1953C417.406 37.3516 416.727 34.75 416.727 31.3906C416.727 28.0312 417.406 25.4375 418.766 23.6094C420.125 21.7656 422.008 20.8438 424.414 20.8438C425.82 20.8438 427.008 21.1484 427.977 21.7578C428.961 22.3672 429.758 23.1719 430.367 24.1719C430.977 25.1562 431.414 26.2812 431.68 27.5469C431.961 28.7969 432.102 30.0781 432.102 31.3906ZM428.961 31.3906C428.961 30.4688 428.914 29.4844 428.82 28.4375C428.727 27.375 428.523 26.3906 428.211 25.4844C427.914 24.5625 427.461 23.7969 426.852 23.1875C426.242 22.5781 425.445 22.2734 424.461 22.2734C423.727 22.2734 423.172 22.4844 422.797 22.9062C422.438 23.3281 422.258 23.8359 422.258 24.4297C422.258 25.0703 422.391 25.5469 422.656 25.8594C422.938 26.1562 423.266 26.3047 423.641 26.3047C424.188 26.3047 424.539 26.1094 424.695 25.7188C424.852 25.3125 424.93 24.8672 424.93 24.3828H426.477C426.477 25.3516 426.273 26.1562 425.867 26.7969C425.477 27.4375 424.766 27.7578 423.734 27.7578C423 27.7578 422.383 27.5312 421.883 27.0781C421.398 26.625 421.156 26.0156 421.156 25.25C421.156 25 421.203 24.6719 421.297 24.2656C421.391 23.8438 421.578 23.4375 421.859 23.0469H421.391C420.844 23.7812 420.445 24.9219 420.195 26.4688C419.961 28 419.844 29.6406 419.844 31.3906C419.844 32.5156 419.914 33.625 420.055 34.7188C420.211 35.7969 420.453 36.7734 420.781 37.6484C421.125 38.5078 421.594 39.2031 422.188 39.7344C422.781 40.2656 423.523 40.5312 424.414 40.5312C425.852 40.5312 426.969 39.7812 427.766 38.2812C428.562 36.7656 428.961 34.4688 428.961 31.3906Z" fill="black"/>
</svg>
